# xmcd CD database file
#
# Track frame offsets:
#	150
#	18286
#	37198
#	52665
#	69512
#	85127
#	111217
#	131367
#	175870
#	193124
#	207246
#	232631
#	254561
#
# Disc length: 3694 seconds
#
# Revision: 2
# Processed by: cddbd v1.4b41PL1 Copyright (c) Steve Scherf et al.
# Submitted via: Feurio! 1.60 - http://www.feurio.com
#
DISCID=a70e6c0d,c10e6c0d
DTITLE=Various Artist - Diddi"s Hits
DYEAR=1900
DGENRE=
TTITLE0=??? - Track: 3
TTITLE1=??? - Track: 7
TTITLE2=??? - Track: 8
TTITLE3=??? - Track: 16
TTITLE4=??? - Track: 3
TTITLE5=Bon Jovi - Keep the Faith
TTITLE6=Bon Jovi - If i was your Mother
TTITLE7=Bon Jovi - Dry County
TTITLE8=Bon Jovi - Woman in Love
TTITLE9=Bon Jovi - Fear
TTITLE10=Bon Jovi - I want You
TTITLE11=Genesis - Congo
TTITLE12=??? - Track: 5
EXTD=
EXTT0=
EXTT1=
EXTT2=
EXTT3=
EXTT4=
EXTT5=
EXTT6=
EXTT7=
EXTT8=
EXTT9=
EXTT10=
EXTT11=
EXTT12=
PLAYORDER=
